<svg xmlns="http://www.w3.org/2000/svg" viewBox="0 0 100 100">
  <!-- Dark background circle -->
  <circle cx="50" cy="50" r="50" fill="#0d1117"/>
  
  <!-- GitHub icon silhouette -->
  <path d="M50 25C36.192 25 25 36.192 25 50C25 61.046 32.029 70.499 42.06 73.723C43.429 73.993 43.934 73.176 43.934 72.469C43.934 71.835 43.91 70.054 43.9 67.695C37.077 69.235 35.458 64.123 35.458 64.123C34.192 61.174 32.401 60.361 32.401 60.361C30.03 58.595 32.585 58.63 32.585 58.63C35.214 58.817 36.698 61.48 36.698 61.48C39.035 65.595 42.946 64.253 44 63.571C44.269 61.856 45.058 60.67 45.934 60.05C40.455 59.423 34.707 57.086 34.707 47.5C34.707 44.468 35.827 42 36.761 40.058C36.453 39.388 35.463 36.727 36.992 33.055C36.992 33.055 39.202 32.337 43.873 35.785C45.832 35.187 47.916 34.888 50 34.877C52.084 34.888 54.168 35.187 56.128 35.785C60.797 32.337 63.005 33.055 63.005 33.055C64.536 36.727 63.546 39.388 63.237 40.058C64.173 42 65.29 44.468 65.29 47.5C65.29 57.109 59.531 59.416 54.034 60.03C55.126 60.79 56.109 62.295 56.109 64.584C56.109 67.87 56.076 71.613 56.076 72.469C56.076 73.182 56.57 73.005 57.954 73.72C67.98 70.491 75 61.041 75 50C75 36.192 63.808 25 50 25" fill="#ffffff"/>
</svg>
